<?xml version="1.0" encoding="UTF-8" standalone="no"?>
<svg width="800" height="400" viewBox="0 0 800 400" version="1.1" xmlns="http://www.w3.org/2000/svg" xmlns:xlink="http://www.w3.org/1999/xlink">
    <title>Aquire Dashboard Preview</title>
    <defs>
        <linearGradient x1="0%" y1="0%" x2="100%" y2="100%" id="gradientBg">
            <stop stop-color="#5865F2" offset="0%"></stop>
            <stop stop-color="#7289DA" offset="100%"></stop>
        </linearGradient>
    </defs>
    <g>
        <!-- Background -->
        <rect x="0" y="0" width="800" height="400" fill="url(#gradientBg)"></rect>
        
        <!-- Dashboard Mockup -->
        <rect x="50" y="50" width="700" height="300" rx="5" ry="5" fill="#ffffff" opacity="0.9"></rect>
        
        <!-- Navigation Bar -->
        <rect x="50" y="50" width="700" height="40" rx="5" ry="5" fill="#2C2F33"></rect>
        <text x="70" y="75" font-family="Arial" font-size="16" fill="#ffffff">Aquire Dashboard</text>
        
        <!-- Sidebar -->
        <rect x="50" y="90" width="150" height="260" fill="#f0f0f0"></rect>
        
        <!-- Sidebar Items -->
        <rect x="60" y="110" width="130" height="30" rx="3" ry="3" fill="#5865F2"></rect>
        <text x="75" y="130" font-family="Arial" font-size="12" fill="#ffffff">Overview</text>
        
        <rect x="60" y="150" width="130" height="30" rx="3" ry="3" fill="#7289DA"></rect>
        <text x="75" y="170" font-family="Arial" font-size="12" fill="#ffffff">Welcome Messages</text>
        
        <rect x="60" y="190" width="130" height="30" rx="3" ry="3" fill="#7289DA"></rect>
        <text x="75" y="210" font-family="Arial" font-size="12" fill="#ffffff">Auto Responses</text>
        
        <rect x="60" y="230" width="130" height="30" rx="3" ry="3" fill="#7289DA"></rect>
        <text x="75" y="250" font-family="Arial" font-size="12" fill="#ffffff">Voice Channels</text>
        
        <rect x="60" y="270" width="130" height="30" rx="3" ry="3" fill="#7289DA"></rect>
        <text x="75" y="290" font-family="Arial" font-size="12" fill="#ffffff">Moderation</text>
        
        <!-- Main Content -->
        <rect x="210" y="100" width="530" height="240" fill="#ffffff"></rect>
        
        <!-- Content Header -->
        <text x="230" y="130" font-family="Arial" font-size="20" font-weight="bold" fill="#2C2F33">Server Overview</text>
        
        <!-- Stats Cards -->
        <rect x="230" y="150" width="150" height="80" rx="5" ry="5" fill="#5865F2"></rect>
        <text x="250" y="180" font-family="Arial" font-size="14" fill="#ffffff">Members</text>
        <text x="250" y="210" font-family="Arial" font-size="20" font-weight="bold" fill="#ffffff">128</text>
        
        <rect x="400" y="150" width="150" height="80" rx="5" ry="5" fill="#7289DA"></rect>
        <text x="420" y="180" font-family="Arial" font-size="14" fill="#ffffff">Channels</text>
        <text x="420" y="210" font-family="Arial" font-size="20" font-weight="bold" fill="#ffffff">12</text>
        
        <rect x="570" y="150" width="150" height="80" rx="5" ry="5" fill="#2C2F33"></rect>
        <text x="590" y="180" font-family="Arial" font-size="14" fill="#ffffff">Roles</text>
        <text x="590" y="210" font-family="Arial" font-size="20" font-weight="bold" fill="#ffffff">8</text>
        
        <!-- Settings Panel -->
        <rect x="230" y="250" width="490" height="80" rx="5" ry="5" fill="#f0f0f0"></rect>
        <text x="250" y="280" font-family="Arial" font-size="14" fill="#2C2F33">Configure Bot Settings</text>
        
        <rect x="250" y="290" width="120" height="30" rx="3" ry="3" fill="#5865F2"></rect>
        <text x="270" y="310" font-family="Arial" font-size="12" fill="#ffffff">Edit Settings</text>
        
        <rect x="380" y="290" width="120" height="30" rx="3" ry="3" fill="#2C2F33"></rect>
        <text x="400" y="310" font-family="Arial" font-size="12" fill="#ffffff">View Commands</text>
    </g>
</svg>